<svg width="145" height="22" xmlns="http://www.w3.org/2000/svg"><g fill="#BC1A1A" fill-rule="nonzero"><path d="M5.496 9.402c-.738 0-1.291.278-1.697.835-.406.557-.627 1.323-.627 2.333 0 2.053.812 3.098 2.471 3.098.517 0 .996-.07 1.476-.21.48-.138.959-.278 1.401-.486v2.436c-.959.383-2.028.592-3.209.592-1.696 0-3.024-.453-3.946-1.392C.443 15.668 0 14.31 0 12.535c0-1.114.221-2.089.664-2.924.443-.836 1.07-1.497 1.918-1.95C3.393 7.21 4.389 7 5.496 7c1.217 0 2.397.244 3.504.766l-.922 2.262a9.058 9.058 0 0 0-1.254-.452 5.3 5.3 0 0 0-1.328-.174zM22 12.5c0 1.81-.478 3.168-1.398 4.108-.92.94-2.28 1.392-4.084 1.392-1.765 0-3.127-.487-4.083-1.427-.957-.94-1.435-2.298-1.435-4.108 0-1.775.478-3.133 1.398-4.073.92-.94 2.318-1.392 4.084-1.392 1.802 0 3.163.453 4.083 1.392C21.56 9.332 22 10.69 22 12.5zm-7.763 0c0 2.054.773 3.098 2.281 3.098.773 0 1.362-.244 1.73-.766.367-.522.551-1.288.551-2.332 0-1.08-.184-1.845-.552-2.367-.367-.522-.956-.766-1.692-.766-1.545 0-2.318 1.044-2.318 3.133zM36 18h-4.092l-4.205-7.714h-.075c.113 1.214.15 2.143.15 2.785V18H25V7.036h4.055l4.204 7.607h.038a41.42 41.42 0 0 1-.113-2.679V7h2.778v11H36zM43.425 18h-2.85V9.436H38V7h8v2.436h-2.575zM55 18h-7V7h7v2.4h-3.808v1.72h3.539v2.401h-3.539V15.6H55zM67 18h-3.417l-2.136-3.44-2.1 3.44H56l3.631-5.625L56.214 7h3.275l1.958 3.404L63.333 7h3.382l-3.453 5.625zM74.425 18h-2.85V9.436H69V7h8v2.436h-2.575zM88 7.035v6.523c0 1.41-.376 2.503-1.163 3.279-.788.775-1.917 1.163-3.354 1.163s-2.532-.388-3.32-1.128c-.752-.74-1.163-1.834-1.163-3.244V7.035h2.84v6.346c0 .776.137 1.305.411 1.657.274.353.684.53 1.232.53.582 0 .992-.177 1.266-.53.274-.352.376-.916.376-1.692V7H88v.035zM92 7h3.268c1.54 0 2.629.215 3.305.645.676.43 1.014 1.11 1.014 2.078 0 .645-.188 1.183-.564 1.613-.375.43-.938.716-1.652.824v.071c1.765.287 2.629 1.147 2.629 2.652 0 .967-.338 1.755-1.052 2.293-.713.537-1.69.824-2.93.824H92V7zm1.352 4.694h2.216c.939 0 1.615-.144 2.028-.43.413-.287.639-.753.639-1.433 0-.61-.226-1.075-.676-1.326-.451-.25-1.202-.394-2.216-.394h-1.99v3.583zm0 1.11v4.121h2.404c.939 0 1.615-.18 2.103-.502.488-.358.714-.895.714-1.612 0-.68-.226-1.182-.714-1.505-.488-.322-1.202-.466-2.216-.466h-2.29v-.035zM113 12.483c0 1.71-.424 3.073-1.307 4.05-.884.978-2.085 1.467-3.675 1.467-1.59 0-2.827-.489-3.71-1.432-.884-.943-1.308-2.34-1.308-4.085 0-1.746.424-3.108 1.307-4.051.884-.978 2.12-1.432 3.71-1.432 1.555 0 2.792.489 3.64 1.467.884.943 1.343 2.304 1.343 4.016zm-8.657 0c0 1.466.318 2.549.954 3.317.636.768 1.52 1.117 2.72 1.117 1.202 0 2.12-.384 2.722-1.117.6-.733.918-1.85.918-3.317 0-1.432-.318-2.55-.918-3.283-.601-.733-1.52-1.117-2.721-1.117-1.202 0-2.12.384-2.757 1.117-.636.733-.918 1.85-.918 3.283zM119.626 18h-1.252V8.147H115V7h8v1.147h-3.374V18zM131.596 17.772l.618-2.257 4.613 1.254L145 11.896 128 0v22l6.066-3.583-2.47-.645zm5.05-6.987c.544 0 .98.43.98.967a.97.97 0 0 1-.98.968.97.97 0 0 1-.981-.968.97.97 0 0 1 .98-.967zm-5.958.967a.97.97 0 0 1 .98-.967c.546 0 .982.43.982.967a.97.97 0 0 1-.981.968.994.994 0 0 1-.981-.968z"/></g></svg>