<svg id="Layer_1" data-name="Layer 1" xmlns="http://www.w3.org/2000/svg" viewBox="0 0 3280.26 412.95"><defs><style>.cls-1,.cls-2{fill:#c2000b;}.cls-2{fill-rule:evenodd;}</style></defs><title>contextubot_LOGO_safe</title><path class="cls-1" d="M-1124.3,1286.21q-23.54,0-36.73,19.28t-13.19,53.17q0,70.46,53.59,70.45a109.78,109.78,0,0,0,31.39-4.51,314,314,0,0,0,30.55-10.85v55.76q-30.55,13.52-69.12,13.52-55.26,0-84.73-32.05t-29.47-92.66q0-37.9,14.27-66.61t41.07-44.16q26.8-15.44,63-15.44a173.65,173.65,0,0,1,75.63,17.2l-20.2,51.92a227.56,227.56,0,0,0-27-10.68A94.56,94.56,0,0,0-1124.3,1286.21Z" transform="translate(1242 -1138.53)"/><path class="cls-1" d="M-757.07,1357.33q0,61.61-30.22,93.66T-875.77,1483q-57.43,0-88.07-32.22T-994.48,1357q0-60.94,30.47-93.08t88.57-32.14q58.26,0,88.32,31.89T-757.07,1357.33Zm-168,0q0,70.79,49.25,70.79,25,0,37.15-17.2t12.1-53.59q0-36.56-12.27-54t-36.65-17.45Q-925,1285.87-925,1357.33Z" transform="translate(1242 -1138.53)"/><path class="cls-1" d="M-455,1479.7h-86.48l-89.15-172h-1.5q3.17,40.57,3.17,61.94v110h-58.43V1235.62h86.15l88.82,169.62h1q-2.34-36.9-2.34-59.27V1235.62H-455V1479.7Z" transform="translate(1242 -1138.53)"/><path class="cls-1" d="M-268.87,1479.7h-65.95V1289.55h-59.6v-53.92h185v53.92h-59.43V1479.7Z" transform="translate(1242 -1138.53)"/><path class="cls-1" d="M-4,1479.7H-148.9V1235.62H-4v52.92H-83v38.4H-9.83v52.92H-83v46.08H-4v53.76Z" transform="translate(1242 -1138.53)"/><path class="cls-1" d="M284.27,1479.7H208l-47.58-76.3-47.08,76.3H38.68l81-124.88-76.13-119.2h73.12l44.08,75.46,42.41-75.46h75.29L201.13,1360Z" transform="translate(1242 -1138.53)"/><path class="cls-1" d="M445,1479.7H379V1289.55h-59.6v-53.92h185v53.92H445V1479.7Z" transform="translate(1242 -1138.53)"/><path class="cls-1" d="M772.47,1235.62v146.92q0,47.92-27.13,74.21T667.12,1483q-49.92,0-76.71-25.54T563.61,1384V1235.62h66.28v143.24q0,25.88,9.68,37.56t28.55,11.69q20.2,0,29.3-11.6t9.1-38V1235.62h65.95Z" transform="translate(1242 -1138.53)"/><path class="cls-1" d="M856.54,1235.62h69q48.58,0,70.29,14.52t21.7,45.91q0,21.7-12.1,35.81t-35.31,18.28v1.67q55.59,9.52,55.59,58.43,0,32.72-22.12,51.09t-61.86,18.36H856.54V1235.62Zm28.38,104.51h46.75q30.05,0,43.24-9.43t13.19-31.8q0-20.54-14.69-29.63t-46.75-9.1H884.92v80Zm0,24v91.32h50.92q29.55,0,44.49-11.44t14.94-35.81q0-22.7-15.28-33.39t-46.5-10.69H884.92Z" transform="translate(1242 -1138.53)"/><path class="cls-1" d="M1315.59,1357.33q0,58.6-29.63,92.16T1203.56,1483q-53.93,0-83.22-33T1091,1357q0-59.6,29.38-92.41t83.48-32.81q52.59,0,82.14,33.39T1315.59,1357.33Zm-194.5,0q0,49.58,21.12,75.21t61.35,25.63q40.57,0,61.27-25.54t20.7-75.29q0-49.25-20.62-74.71t-61-25.46q-40.57,0-61.69,25.63T1121.09,1357.33Z" transform="translate(1242 -1138.53)"/><path class="cls-1" d="M1470.79,1479.7h-28.38V1260.83h-77.3v-25.21h183v25.21h-77.3V1479.7Z" transform="translate(1242 -1138.53)"/><path class="cls-2" d="M2012.36,1387.27a46.61,46.61,0,0,0,2.64-82.09l-276.69-160.37a46.61,46.61,0,0,0-69.91,42.75l-0.53,317.38a46.55,46.55,0,0,0,70.88,39.67Zm-240.17-12.86a28.05,28.05,0,1,1,28.05-28.05A28.11,28.11,0,0,1,1772.2,1374.41Zm121,0a28.05,28.05,0,1,1,28.05-28.05A28.11,28.11,0,0,1,1893.16,1374.41Z" transform="translate(1242 -1138.53)"/></svg>